<?xml version="1.0" encoding="utf-8" ?>
<svg xmlns="http://www.w3.org/2000/svg" xmlns:xlink="http://www.w3.org/1999/xlink" width="300" height="300">
<path fill="#FEFEFE" transform="scale(0.292969 0.292969)" d="M0 0L1024 0L1024 1024L0 1024L0 0Z"/>
<path fill="#141414" transform="scale(0.292969 0.292969)" d="M270.478 208.084C270.788 208.529 265.61 214.635 264.82 215.73C259.914 222.526 257.278 229.484 256.875 237.859C254.781 236.981 252.771 235.837 250.755 234.791C249.946 234.109 248.854 233.286 248.261 232.411C247.485 231.263 247.423 230.198 247.747 228.883C249.549 221.554 264.356 211.715 270.478 208.084Z"/>
<path fill="#141414" transform="scale(0.292969 0.292969)" d="M762.665 790.134C762.799 790.15 762.934 790.158 763.066 790.184C765.804 790.718 774.003 794.021 775.259 796.607C775.783 797.686 775.888 798.381 775.613 799.535C774.714 803.307 768.916 805.838 765.804 807.65C762.53 809.554 759.238 811.333 755.843 813.013C760.077 805.184 762.16 799.094 762.665 790.134Z"/>
<path fill="#141414" transform="scale(0.292969 0.292969)" d="M621.498 767.438C622.266 767.539 623.009 767.639 623.733 767.935C625.054 768.476 626.044 769.299 626.506 770.707C627.222 772.888 626.657 775.22 625.496 777.135C618.373 788.887 576.862 801.656 563.021 805.25C560.998 805.633 558.972 806.237 556.971 806.733C566.698 801.298 576.551 796.612 585.948 790.533C597.65 782.963 609.03 773.574 621.498 767.438Z"/>
<path fill="#141414" transform="scale(0.292969 0.292969)" d="M459.614 220.137L460.079 220.233L460.205 220.892C455.199 224.746 444.989 228.618 438.633 232.966C428.539 239.874 419.917 249.824 409.374 255.841C404.12 258.839 399.189 259.21 393.42 257.62C392.344 257.043 391.495 256.452 390.568 255.656C390.721 255.37 390.832 255.057 391.027 254.797C392.514 252.812 395.43 250.81 397.331 249.148C414.034 234.544 437.643 223.928 459.614 220.137Z"/>
<path fill="#141414" transform="scale(0.292969 0.292969)" d="M247.816 235.786C250.866 236.196 254.235 238.433 256.984 239.811C266.49 244.575 276.625 243.659 286.836 242.216C278.342 250.116 269.099 256.427 259.284 262.518C256.311 264.308 253.102 265.998 249.843 267.196C241.891 270.12 234.894 269.753 227.198 266.187C232.177 254.833 239.924 245.228 247.816 235.786Z"/>
<path fill="#141414" transform="scale(0.292969 0.292969)" d="M780.898 755.193C781.172 755.188 781.446 755.179 781.72 755.178C785.213 755.162 790.936 755.793 793.393 758.586C794.498 759.842 794.903 761.529 794.788 763.171C794.212 771.401 777.497 785.428 771.169 790.975C768.727 790.108 766.331 788.085 763.786 787.747C763.689 788.411 763.785 788.666 763.295 789.154L762.34 788.163C762.094 786.621 761.726 785.944 760.733 784.734C760.633 784.611 760.528 784.49 760.426 784.369C753.449 779.458 745.214 780.619 737.202 781.062C749.415 769.904 763.656 756.779 780.898 755.193Z"/>
<path fill="#141414" transform="scale(0.292969 0.292969)" d="M737.836 753.195C743.117 753.303 747.258 754.332 752.157 756.235C737.641 766.057 723.517 776.249 708.51 785.361C693.792 794.298 678.683 801.709 662.972 808.682C634.516 821.312 606.594 831.197 575.125 832.082C570.153 832.187 565.229 832.243 560.267 831.839C571.001 828.942 582.177 827.254 593.015 824.677Q601.209 822.739 609.28 820.337Q617.35 817.934 625.27 815.073Q633.19 812.213 640.933 808.905Q648.677 805.597 656.218 801.851C678.433 790.881 717.965 755.545 737.836 753.195Z"/>
<path fill="#141414" transform="scale(0.292969 0.292969)" d="M448.702 190.711C451.771 190.563 456.062 190.181 459.006 191.008C459.877 191.252 460.732 191.545 461.138 192.369C459.927 193.353 458.338 193.465 456.82 193.603C406.701 198.153 373.075 216.481 332.943 245.415C319.966 254.771 303.166 267.831 287.594 271.626C283.994 271.68 279.955 271.291 276.509 270.152C275.182 269.714 274.579 269.45 273.894 268.231C274.085 267.838 274.148 267.647 274.487 267.297C275.46 266.293 276.983 265.463 278.091 264.557C283.172 260.399 288.269 256.351 293.591 252.503C304.2 244.83 315.023 237.646 326.47 231.278C337.685 225.04 349.39 219.998 361.17 214.948C380.781 206.541 401.013 198.312 421.964 193.9C430.782 192.043 439.719 191.195 448.702 190.711Z"/>
<path fill="#141414" transform="scale(0.292969 0.292969)" d="M456.223 203.206C459.159 202.855 462.287 202.894 465.25 202.839C467.757 202.793 473.338 202.463 475.205 204.255C474.232 206.218 467.093 207.322 464.779 207.93C455.001 210.499 444.934 212.821 435.42 216.226C411.936 224.631 390.931 239.176 370.217 252.788C359.405 259.894 348.507 269.092 336.312 273.56C329.452 275.206 324.077 274.298 317.854 271.074C331.152 261.869 343.013 250.548 356.285 241.209C381.734 223.304 425.362 205.203 456.223 203.206Z"/>
<path fill="#141414" transform="scale(0.292969 0.292969)" d="M693.813 750.598C700.68 749.995 706.197 750.257 712.346 753.584C695.858 764.104 680.488 776.378 663.944 786.757C635.308 804.72 598.457 815.256 565.124 819.429C557.853 819.8 550.677 820.059 543.396 819.892C566.146 812.006 589.302 806.553 611.183 796.151C623.013 790.526 634.435 783.712 645.456 776.651C660.683 766.897 675.652 754.166 693.813 750.598Z"/>
<path fill="#141414" transform="scale(0.292969 0.292969)" d="M398.456 317.213C411.777 316.257 425.411 317.254 438.304 320.787C460.39 326.839 480.142 339.637 491.531 359.861C503.214 380.609 505.136 415.584 498.865 438.393C496.031 429.264 491.927 420.95 487.754 412.382C489.606 399.709 491.198 385.915 484.564 374.207C487.292 386.592 487.587 396.512 485.201 408.962C480.944 401.955 476.397 396.039 470.951 389.944Q470.964 389.389 470.961 388.833C470.992 371.038 466.178 354.912 453.352 342.03C462.911 356.456 467.543 368.591 467.623 385.974C460.559 378.413 452.752 372.03 444.199 366.232Q443.919 362.625 442.939 359.143C439.785 347.874 431.976 336.446 421.696 330.56L422.404 331.382L422.309 331.681L422.125 331.128C432.678 341.105 438.09 349.381 440.291 363.927C431.283 359.034 422.368 355.023 412.832 351.258C409.449 342.43 402.016 335.543 393.585 331.511L393.22 331.768C400.746 336.975 405.748 341.17 409.018 350.014C400.137 347.024 391.011 344.459 381.786 342.766C376.521 341.799 371.395 341.603 366.206 340.139C364.67 339.706 363.91 339.307 362.511 340.07L362.474 340.299L362.831 340.666C365.271 340.836 367.422 341.573 369.801 342.02C381.532 344.226 395.887 346.894 406.657 352.233L406.733 352.939C396.655 355.311 387.058 354.856 376.859 355.278L377.204 355.624C389.094 357.21 398.171 356.296 409.909 354.19Q416.117 356.854 421.973 360.223Q427.829 363.593 433.252 367.621C422.618 370.96 410.352 373.121 399.226 372.378C394.645 372.072 390.118 371.109 385.55 370.636C397.992 377.422 425.041 373.012 438.59 369.827C444.35 373.374 449.379 378.468 454.452 382.951C437.101 389.043 433.75 388.404 415.882 389.046C416.071 389.151 416.246 389.286 416.449 389.361C418.072 389.964 420.643 389.999 422.389 390.218C434.629 391.749 445.468 390.021 456.789 385.216C462.473 390.413 468.011 395.952 472.155 402.486C456.226 408.512 449.898 408.157 433.038 407.645C435.293 408.269 437.68 408.689 439.991 409.045C450.087 410.602 464.949 410.864 473.603 404.453C479.474 413.239 484.802 421.729 488.578 431.685C471.227 429.283 453.706 433.791 436.14 431.083Q434.949 430.889 433.763 430.663Q432.577 430.437 431.397 430.18Q430.217 429.923 429.045 429.636Q427.872 429.348 426.708 429.029Q425.544 428.711 424.388 428.362Q423.232 428.012 422.086 427.633Q420.94 427.253 419.804 426.844Q418.669 426.435 417.544 425.995Q416.42 425.556 415.307 425.087Q414.195 424.619 413.095 424.121Q411.995 423.623 410.909 423.096Q409.822 422.57 408.75 422.015Q407.678 421.46 406.621 420.877Q405.564 420.294 404.522 419.683Q403.481 419.072 402.456 418.434Q401.431 417.796 400.423 417.132Q399.415 416.467 398.425 415.776Q397.435 415.085 396.464 414.368Q395.493 413.651 394.54 412.909Q393.588 412.167 392.656 411.4Q391.724 410.633 390.812 409.842Q389.9 409.051 389.009 408.236Q388.118 407.421 387.25 406.583Q386.381 405.745 385.534 404.884Q384.688 404.023 383.864 403.141Q383.04 402.258 382.24 401.354Q381.44 400.45 380.664 399.525Q379.888 398.6 379.137 397.655Q378.385 396.71 377.659 395.746Q376.933 394.782 376.232 393.798Q375.532 392.815 374.857 391.814Q374.183 390.813 373.535 389.794C367.191 379.862 362.422 369.058 355.416 359.515C346.313 347.114 333.904 338.821 318.609 336.533C324.503 333.813 330.907 331.854 337.075 329.857C357.223 323.335 377.277 318.554 398.456 317.213Z"/>
<path fill="#141414" transform="scale(0.292969 0.292969)" d="M494.473 57.2207Q499.902 57.0011 505.335 56.91Q510.768 56.8189 516.202 56.8564Q521.635 56.8939 527.066 57.0599Q532.497 57.2259 537.923 57.5204Q543.349 57.8149 548.766 58.2376Q554.183 58.6604 559.589 59.2112Q564.995 59.762 570.386 60.4406Q575.777 61.1192 581.151 61.9251Q586.524 62.731 591.877 63.6638Q597.23 64.5967 602.56 65.6559Q607.889 66.7151 613.192 67.9001Q618.495 69.0851 623.768 70.3953Q629.042 71.7054 634.283 73.14Q639.523 74.5745 644.729 76.1327Q649.934 77.6908 655.102 79.3717Q660.269 81.0526 665.395 82.8552Q670.521 84.6579 675.602 86.5813Q680.684 88.5047 685.719 90.5479Q690.754 92.591 695.739 94.7527Q700.725 96.9144 705.657 99.1934Q710.59 101.472 715.467 103.867Q720.345 106.263 725.164 108.772Q729.983 111.282 734.742 113.905Q739.5 116.528 744.196 119.263Q748.891 121.998 753.52 124.844Q758.149 127.689 762.71 130.643Q767.27 133.597 771.76 136.658Q776.249 139.719 780.665 142.886Q785.08 146.052 789.42 149.322Q793.759 152.592 798.02 155.964Q802.281 159.336 806.461 162.808Q810.641 166.279 814.738 169.849C804.677 174.27 792.585 179.876 781.364 178.316C761.532 175.56 740.524 159.928 723.464 149.682L647.711 104.247C631.633 94.6982 615.56 85.4894 598.833 77.0959C590.379 72.8538 581.833 68.3954 572.763 65.6146C566.719 63.7616 560.453 62.2129 554.09 62.5253C539.914 63.2215 500.842 78.3334 486.485 84.9792C480.579 87.7132 475.075 91.7593 468.88 93.78C463.876 95.4118 458.065 95.9126 452.874 96.8589C443.278 98.6081 433.76 100.471 424.262 102.701Q410.282 106.02 396.54 110.218Q382.799 114.417 369.351 119.477Q355.903 124.538 342.803 130.441Q329.703 136.344 317.003 143.065Q312.405 145.542 307.87 148.131Q303.334 150.719 298.863 153.417Q294.391 156.116 289.987 158.922Q285.583 161.729 281.249 164.642Q276.914 167.555 272.652 170.573Q268.39 173.591 264.203 176.712Q260.016 179.833 255.906 183.056Q251.797 186.278 247.767 189.6Q243.737 192.921 239.789 196.34Q235.841 199.759 231.978 203.273Q228.115 206.787 224.339 210.395Q220.562 214.002 216.875 217.701Q213.188 221.399 209.592 225.186Q205.996 228.973 202.494 232.847Q198.992 236.721 195.585 240.679Q192.178 244.637 188.869 248.677Q185.559 252.717 182.35 256.837Q179.14 260.956 176.032 265.153Q172.923 269.35 169.918 273.621Q166.913 277.892 164.013 282.235Q161.113 286.578 158.32 290.991Q155.527 295.404 152.842 299.883Q150.158 304.363 147.583 308.906Q145.008 313.45 142.545 318.055Q140.082 322.66 137.732 327.324Q135.382 331.988 133.147 336.708Q130.911 341.427 128.792 346.2Q126.672 350.973 124.669 355.796Q122.666 360.619 120.782 365.49Q118.898 370.36 117.133 375.275Q115.368 380.19 113.723 385.147Q112.078 390.104 110.555 395.099Q109.294 399.384 108.126 403.695Q106.957 408.007 105.882 412.342Q104.806 416.677 103.825 421.035Q102.843 425.393 101.955 429.77Q101.067 434.148 100.274 438.544Q99.4807 442.94 98.7822 447.351Q98.0837 451.763 97.4804 456.189Q96.8771 460.615 96.3692 465.053Q95.8613 469.491 95.449 473.938Q95.0368 478.386 94.7204 482.842Q94.404 487.297 94.1836 491.759Q93.9632 496.22 93.8389 500.685Q93.7146 505.15 93.6865 509.617Q93.6584 514.083 93.7264 518.55Q93.7944 523.016 93.9586 527.48Q94.1228 531.943 94.383 536.403Q94.6432 540.862 94.9994 545.314Q95.3556 549.767 95.8076 554.211Q96.2595 558.655 96.807 563.088Q97.3546 567.521 97.9974 571.941Q98.6402 576.362 99.3781 580.767Q100.116 585.172 100.948 589.561Q101.781 593.95 102.708 598.319Q103.635 602.689 104.655 607.037Q105.676 611.386 106.79 615.712Q107.904 620.037 109.111 624.338Q110.318 628.638 111.617 632.912Q112.916 637.186 114.307 641.43Q115.698 645.675 117.18 649.889Q118.662 654.103 120.235 658.284Q121.807 662.465 123.469 666.611Q125.131 670.757 126.882 674.866C132.315 687.803 138.659 700.358 145.136 712.798C133.746 718.931 119.567 721.879 107.061 724.721C100.095 714.425 95.0667 701.882 90.2313 690.453Q88.1758 685.693 86.2326 680.885Q84.2895 676.078 82.4599 671.226Q80.6303 666.374 78.9151 661.48Q77.2 656.587 75.6003 651.655Q74.0007 646.722 72.5173 641.754Q71.034 636.785 69.6678 631.783Q68.3017 626.781 67.0534 621.748Q65.8051 616.715 64.6755 611.654Q63.5458 606.594 62.5353 601.508Q61.5249 596.422 60.6342 591.313Q59.7435 586.205 58.9731 581.077Q58.2027 575.95 57.553 570.805Q56.9033 565.661 56.3747 560.502Q55.846 555.344 55.4387 550.175Q55.0314 545.006 54.7457 539.828Q54.46 534.651 54.296 529.468Q54.129 525.208 54.0422 520.946Q53.9554 516.684 53.9488 512.422Q53.9422 508.159 54.0158 503.896Q54.0893 499.634 54.2431 495.374Q54.3968 491.114 54.6306 486.858Q54.8645 482.601 55.1784 478.35Q55.4922 474.099 55.886 469.854Q56.2798 465.609 56.7534 461.373Q57.2269 457.136 57.7801 452.91Q58.3333 448.683 58.9659 444.467Q59.5984 440.251 60.3102 436.048Q61.022 431.845 61.8127 427.656Q62.6034 423.468 63.4728 419.294Q64.3421 415.121 65.2899 410.965Q66.2376 406.809 67.2633 402.671Q68.289 398.533 69.3924 394.416Q70.4958 390.298 71.6764 386.202Q72.8571 382.106 74.1146 378.033Q75.3721 373.96 76.7059 369.911Q78.0398 365.862 79.4496 361.839Q80.8595 357.816 82.3447 353.82Q83.8299 349.825 85.3901 345.858Q86.9502 341.89 88.5847 337.953Q90.2192 334.016 91.9274 330.111Q93.6357 326.205 95.4171 322.332Q97.1986 318.459 99.0525 314.621Q100.906 310.782 102.832 306.979Q104.758 303.176 106.755 299.41Q108.752 295.644 110.82 291.916Q112.887 288.188 115.025 284.5Q117.162 280.811 119.368 277.164Q121.574 273.516 123.849 269.911C137.969 247.334 154.047 225.412 172.222 205.912C257.268 114.664 369.485 61.6403 494.473 57.2207Z"/>
<path fill="#141414" transform="scale(0.292969 0.292969)" d="M914.992 296.611C919.282 301.716 924.698 314.714 927.801 321.143Q930.367 326.596 932.786 332.116Q935.204 337.636 937.473 343.219Q939.743 348.802 941.861 354.445Q943.979 360.087 945.945 365.784Q947.911 371.481 949.722 377.229Q951.534 382.977 953.191 388.771Q954.847 394.566 956.347 400.403Q957.847 406.24 959.19 412.115Q960.532 417.99 961.716 423.9Q962.9 429.809 963.925 435.748Q964.95 441.687 965.814 447.651Q966.679 453.616 967.383 459.601Q968.087 465.586 968.629 471.589Q969.172 477.591 969.553 483.605Q969.934 489.62 970.153 495.643Q970.372 501.666 970.429 507.692Q970.495 513.256 970.424 518.819Q970.353 524.383 970.145 529.943Q969.936 535.503 969.591 541.056Q969.245 546.61 968.762 552.153Q968.279 557.696 967.659 563.225Q967.04 568.755 966.284 574.267Q965.528 579.779 964.636 585.272Q963.744 590.764 962.716 596.232Q961.689 601.7 960.527 607.142Q959.365 612.583 958.069 617.994Q956.773 623.405 955.343 628.782Q953.914 634.159 952.352 639.5Q950.79 644.84 949.097 650.14Q947.403 655.44 945.58 660.697Q943.756 665.954 941.803 671.164Q939.85 676.374 937.769 681.534Q935.688 686.694 933.48 691.801Q931.272 696.908 928.939 701.96Q926.605 707.011 924.148 712.003Q921.69 716.995 919.11 721.924Q916.531 726.854 913.829 731.718Q911.129 736.583 908.308 741.379Q905.488 746.175 902.55 750.901Q899.612 755.626 896.558 760.277Q893.504 764.928 890.337 769.502Q887.169 774.077 883.889 778.571Q880.609 783.066 877.22 787.478Q873.83 791.89 870.332 796.217Q866.834 800.544 863.231 804.784Q859.627 809.023 855.92 813.172Q852.213 817.322 848.404 821.378Q844.596 825.434 840.688 829.395Q836.793 833.386 832.802 837.28Q828.811 841.174 824.726 844.97Q820.641 848.766 816.465 852.461Q812.288 856.156 808.023 859.748Q803.758 863.34 799.406 866.826Q795.054 870.313 790.618 873.692Q786.183 877.072 781.666 880.342Q777.149 883.612 772.554 886.771Q767.959 889.93 763.288 892.976Q758.617 896.022 753.873 898.952Q749.129 901.883 744.315 904.698Q739.501 907.512 734.62 910.208Q729.738 912.903 724.793 915.479Q719.847 918.055 714.84 920.51Q709.833 922.964 704.767 925.295Q699.702 927.627 694.581 929.834Q689.46 932.041 684.287 934.122Q679.114 936.204 673.891 938.158Q668.669 940.113 663.4 941.939Q658.131 943.766 652.82 945.463Q647.508 947.16 642.156 948.728Q636.805 950.295 631.417 951.731Q626.028 953.167 620.607 954.471Q615.185 955.775 609.733 956.946Q604.281 958.118 598.803 959.155Q593.324 960.193 587.821 961.097Q582.319 962.001 576.796 962.77Q571.273 963.54 565.733 964.174Q560.193 964.808 554.639 965.307Q549.085 965.806 543.52 966.169Q537.956 966.532 532.384 966.759Q526.812 966.986 521.237 967.077C432.705 968.333 353.618 948.224 277.106 903.278C254.122 889.776 229.59 872.918 210.476 854.317L210.608 853.342C211.188 852.945 211.752 852.543 212.412 852.285C221.834 848.599 235.277 843.314 245.518 845.103C259.786 847.596 282.087 862.006 294.659 869.413C336.802 894.239 377.554 921.948 421.114 944.296C430.515 949.119 440.332 954.857 450.28 958.361C455.396 960.163 460.797 961.166 466.227 960.83C484.453 959.701 528.189 943.271 545.795 936.036C553.228 932.982 560.538 929.055 568.201 926.642C572.557 925.271 577.45 925.036 581.962 924.283Q593.117 922.383 604.148 919.857Q615.454 917.101 626.605 913.774Q637.757 910.447 648.724 906.557Q659.692 902.667 670.448 898.224Q681.203 893.782 691.719 888.798Q695.603 886.961 699.448 885.043Q703.293 883.126 707.097 881.13Q710.902 879.133 714.665 877.059Q718.427 874.984 722.146 872.833Q725.865 870.681 729.538 868.453Q733.212 866.224 736.839 863.921Q740.465 861.617 744.044 859.239Q747.622 856.861 751.15 854.409Q754.679 851.958 758.156 849.434Q761.633 846.91 765.057 844.314Q768.481 841.719 771.851 839.054Q775.221 836.388 778.535 833.654Q781.849 830.919 785.105 828.117Q788.362 825.314 791.56 822.445Q794.758 819.576 797.896 816.641Q801.034 813.706 804.111 810.708Q807.188 807.709 810.202 804.647Q813.217 801.585 816.167 798.462Q819.117 795.338 822.002 792.154Q824.887 788.971 827.706 785.728Q830.525 782.485 833.276 779.185Q836.027 775.885 838.709 772.529Q841.391 769.172 844.004 765.761Q846.616 762.35 849.157 758.885Q851.699 755.421 854.168 751.905Q856.637 748.389 859.033 744.822Q861.429 741.256 863.751 737.641Q866.073 734.026 868.319 730.363Q870.566 726.701 872.736 722.993Q874.906 719.285 877 715.533Q879.093 711.781 881.108 707.986Q883.124 704.191 885.06 700.356C893.587 683.348 900.577 665.523 906.938 647.604Q908.403 643.377 909.775 639.118Q911.148 634.86 912.428 630.573Q913.708 626.286 914.895 621.973Q916.082 617.659 917.176 613.321Q918.269 608.983 919.269 604.622Q920.268 600.261 921.173 595.879Q922.077 591.498 922.887 587.098Q923.697 582.697 924.411 578.281Q925.125 573.864 925.743 569.433Q926.362 565.002 926.884 560.559Q927.407 556.115 927.833 551.662Q928.259 547.208 928.588 542.746Q928.918 538.285 929.151 533.817Q929.384 529.349 929.52 524.877Q929.656 520.405 929.696 515.931Q929.735 511.457 929.677 506.984Q929.62 502.51 929.466 498.039Q929.312 493.568 929.06 489.101Q928.81 484.634 928.462 480.173Q928.114 475.713 927.67 471.261Q927.226 466.809 926.686 462.368Q926.145 457.927 925.509 453.498Q924.873 449.07 924.14 444.656Q923.408 440.242 922.581 435.845Q921.754 431.449 920.831 427.071Q919.909 422.693 918.892 418.336Q917.875 413.979 916.764 409.645Q915.653 405.312 914.448 401.003Q913.244 396.694 911.946 392.412Q910.649 388.131 909.259 383.878Q907.869 379.625 906.387 375.404Q904.906 371.182 903.333 366.994Q897.019 350.261 888.976 334.286C885.24 326.886 881.091 319.688 877.524 312.206C886.785 306.818 904.344 300.137 914.992 296.611Z"/>
<path fill="#141414" transform="scale(0.292969 0.292969)" d="M556.589 374.898C559.447 376.837 563.557 388.281 564.946 391.876Q559.835 394.737 555.275 398.413C533.447 415.864 520.188 444.23 517.239 471.737C538.515 467.945 569.782 455.291 589.535 456.962C607.043 458.443 622.213 467.162 633.437 480.483C653.282 504.037 659.024 538.544 656.394 568.479C652.572 611.986 630.101 653.526 602.078 686.266C595.472 693.983 588.808 701.504 580.966 708.012C559.818 725.561 541.703 722.136 516.223 719.705C503.53 717.841 489.385 722.117 476.287 721.528C455.704 720.603 442.366 708.456 429.092 694.049C392.949 654.822 365.81 600.578 368.087 546.25C369.194 519.853 378.184 491.345 398.273 473.158C434.936 439.966 467.378 470.269 507.579 472.284Q509.031 460.361 511.719 448.654C518.184 420.538 531.286 390.75 556.589 374.898Z"/>
<path fill="#FEFEFE" transform="scale(0.292969 0.292969)" d="M631.7 511.154L632.147 511.249C635.805 519.314 637.982 527.284 639.48 535.971C648.211 586.61 624.466 630.25 596.429 670.093C596.091 670.544 595.633 670.924 595.229 671.316C595.287 670.895 612.87 640.964 614.725 637.413C628.661 610.742 639.309 572.377 637.742 542.232C637.185 531.499 634.902 521.369 631.7 511.154Z"/>
<path fill="#FEFEFE" transform="scale(0.292969 0.292969)" d="M618.113 558.937C620.749 559.261 622.345 559.779 624.101 561.858C627.411 565.776 627.474 572.211 627.082 577.109C626.426 585.287 623.463 593.178 617.1 598.559C616.048 598.568 614.965 598.553 613.937 598.298C612.17 597.862 610.852 596.427 609.929 594.929C606.75 589.765 607.475 580.786 608.749 575.071C610.11 568.967 612.654 562.398 618.113 558.937Z"/>
<path fill="#FEFEFE" transform="scale(0.292969 0.292969)" d="M443.308 466.402C445.174 466.711 447.138 467.701 448.908 468.391C500.991 488.662 528.845 488.152 579.67 465.811L574.41 469.48C561.527 477.895 547.92 484.61 532.82 488.017C498.531 495.753 471.692 484.187 443.308 466.402Z"/>
<path fill="#FEFEFE" transform="scale(0.292969 0.292969)" d="M406.83 488.476C406.743 490.747 401.604 499.738 400.388 502.624Q398.802 506.31 397.474 510.098Q396.146 513.885 395.083 517.755Q394.021 521.625 393.228 525.559Q392.435 529.493 391.916 533.473C383.604 595.621 410.572 642.376 446.909 689.582L446.78 690.337L447.051 690.563L447.425 690.335L447.689 690.952L446.997 690.723L447.428 690.698L446.888 690.715L447.108 690.289L446.417 690.283L445.788 689.436C419.091 658.045 394.192 623.407 387.293 581.733C381.968 549.571 387.576 515.284 406.83 488.476Z"/>
<path fill="#FEFEFE" transform="scale(0.292969 0.292969)" d="M608.086 494.029C609.261 493.939 610.404 493.873 611.564 494.147C615.958 495.182 619.576 499.114 621.98 502.74C628.804 513.028 632.014 529.6 629.395 541.68C628.189 547.241 625.971 551.744 621.077 554.837C619.639 555.302 618.373 555.319 616.923 554.928C613.069 553.889 610.381 550.763 608.431 547.439C601.474 535.578 597.72 516.722 601.384 503.286C602.565 498.956 604.165 496.236 608.086 494.029Z"/>
<path fill="#141414" transform="scale(0.292969 0.292969)" d="M258.4 691.737C306.439 691.269 348.41 707.113 382.122 741.842C397.345 757.524 410.017 772.728 428.889 784.591C447.294 796.161 468.493 803.923 489.193 810.274C499.028 813.292 509.276 815.685 518.771 819.65C533.914 825.974 556.735 841.486 562.829 857.475C564.549 861.99 565.035 866.958 562.898 871.418C560.512 876.398 555.461 879.487 550.429 881.305C540.499 884.892 529.817 884.67 519.487 883.476C486.391 879.651 457.661 864.902 429.997 847.152C417.388 839.061 405.354 828.871 391.744 822.515C377.229 815.736 363.46 815.167 348.456 820.695C350.011 821.233 354.518 820.107 356.377 820.085C364.24 819.992 372.84 822.343 379.96 825.564C393.804 831.826 406.645 842.345 418.966 851.13C437.504 864.348 457.798 875.688 479.464 882.841C502.012 890.284 535.872 896.488 557.648 885.285C563.607 882.219 568.003 877.273 569.905 870.799C572.567 861.741 569.276 854.529 565.15 846.698C585.647 842.626 604.434 840.593 624.59 834.002Q645.169 827.365 664.883 818.483C682.372 810.776 739.187 779.968 755.651 785.657C758.191 786.535 759.288 788.154 760.438 790.472C760.796 795.238 759.491 800.277 757.497 804.598C751.916 816.694 733.106 826.46 722.014 833.387C687.663 854.842 652.513 874.173 615.313 890.293C597.961 897.813 580.106 904.147 562.523 911.095C547.498 917.032 532.803 923.57 517.586 929.058C508.319 932.4 470.736 945.687 463.484 945.126C457.571 944.668 450.788 940.845 445.431 938.319C427.33 929.783 410.297 919.669 393.058 909.577C383.035 903.709 372.842 898.12 362.884 892.143C346.703 882.432 330.804 872.258 314.611 862.555C304.673 856.599 294.78 850.421 284.566 844.951C276.343 840.548 267.318 836.773 259.543 831.654C254.422 828.282 249.977 823.955 245.796 819.497Q244.009 817.589 242.34 815.576Q240.671 813.564 239.125 811.455Q237.58 809.346 236.164 807.149Q234.748 804.951 233.466 802.672Q232.185 800.393 231.042 798.041Q229.9 795.69 228.9 793.274Q227.901 790.858 227.049 788.386Q226.197 785.914 225.494 783.396C224.315 779.283 223.809 774.699 222.385 770.731L222.155 771.48L222.025 770.985C222.015 771.289 221.98 771.593 221.996 771.896C223.089 792.54 234.306 813.881 248.228 828.68C228.447 828.006 213.809 835.051 195.881 841.744C171.075 819.24 149.275 792.885 130.18 765.441C124.326 757.027 118.306 748.511 113.721 739.316C145.799 732.828 172.788 713.856 202.87 702.294C220.598 695.48 239.478 692.338 258.4 691.737Z"/>
<path fill="#FEFEFE" transform="scale(0.292969 0.292969)" d="M519.019 830.54C523.559 829.92 527.295 831.666 531.194 833.807C541.208 839.303 553.107 849.12 556.143 860.689C557.03 864.069 556.81 867.549 554.849 870.518C551.842 875.071 546.642 876.102 541.655 876.977C533.342 877.303 525.261 876.043 517.361 873.448C512.517 871.857 506.81 869.378 504.56 864.475C502.15 859.223 504.088 853.186 505.904 848.076C508.506 840.75 511.658 834.056 519.019 830.54Z"/>
<path fill="#141414" transform="scale(0.292969 0.292969)" d="M519.562 831.557C523.543 831.363 526.539 832.5 529.993 834.364C539.511 839.5 550.882 849.832 553.785 860.637C554.487 863.253 554.463 866.02 552.967 868.365C550.643 872.009 546.349 872.709 542.449 873.475C534.571 873.761 526.811 873.205 519.148 871.251C514.961 870.184 509.867 868.477 507.702 864.422C505.878 861.005 506.797 856.319 507.815 852.777C510.001 845.173 512.233 835.614 519.562 831.557Z"/>
<path fill="#141414" transform="scale(0.292969 0.292969)" d="M551.106 78.5564C557.631 78.1235 563.472 79.5258 569.548 81.8038C584.79 87.5187 600.1 96.4583 614.468 104.237C641.976 119.131 668.632 135.478 695.276 151.861C710.855 161.44 726.348 171.363 742.37 180.192C747.057 182.775 752.001 184.836 756.73 187.336C778.305 198.742 791.989 222.994 799.393 245.424C801.052 250.452 801.664 255.69 803.223 260.722C803.237 260.21 803.258 259.697 803.25 259.184C802.878 236.729 788.325 207.706 772.202 192.281C787.007 195.423 798.639 192.606 812.497 187.204C817.063 185.424 821.91 183.649 826.129 181.15C853.606 204.882 891.255 251.265 908.064 283.489C893.519 287.481 879.632 294.601 866.247 301.428C839.358 315.141 813.079 328.326 782.625 331.883C730.142 338.014 679.666 316.469 642 280.794C623.805 263.56 608.081 244.908 585.552 232.952C571.265 225.369 554.957 221.093 539.522 216.545C517.352 210.015 493.533 201.287 475.304 186.79C469.903 182.348 464.624 177.466 461.549 171.057C458.898 165.533 457.809 158.893 460.081 153.042C461.892 148.381 465.58 145.119 470.129 143.205C480.322 138.917 493.554 139.386 504.334 140.258C539.186 143.078 568.191 158.498 596.097 178.505C608.964 187.73 621.271 197.15 636.21 202.884C650.84 208.5 664.62 209.001 679.053 202.585C644.474 208.391 623.848 184.686 597.819 167.381C577.533 153.895 555.231 141.547 531.314 136.044C511.776 131.549 480.718 129.371 463.206 140.673C458.362 143.799 454.649 148.534 453.556 154.275C451.867 163.143 456.487 171.513 461.339 178.528C454.857 179.607 448.185 179.856 441.66 180.816Q429.573 182.644 417.677 185.459Q405.78 188.274 394.156 192.058Q375.835 198.116 358.322 206.22C334.089 217.349 290.978 242.138 264.739 238.938C262.803 238.702 261.224 238.406 260.033 236.839C259.66 231.937 261.474 227.191 263.884 223.007C268.211 215.494 274.623 208.942 281.394 203.595C289.296 197.356 298.612 192.429 307.24 187.238Q334.473 171.218 362.626 156.876Q390.779 142.534 419.748 129.921C447.165 118.124 475.29 107.674 503.137 96.9294Q515.964 92.0046 528.696 86.8411C536.064 83.8525 543.406 80.5936 551.106 78.5564Z"/>
<path fill="#FEFEFE" transform="scale(0.292969 0.292969)" d="M480.767 144.595C481.887 144.53 482.996 144.489 484.118 144.515C495.05 144.771 509.35 150.414 516.863 158.496C519.648 161.493 521.328 165.084 521.14 169.226C520.769 177.379 514.497 185.391 508.861 190.805C507.758 191.547 506.527 192.424 505.262 192.847C502.338 193.825 498.152 192.33 495.51 191.114C485.821 186.651 475.297 178.015 471.69 167.661C469.923 162.591 469.259 155.964 471.89 151.059C473.837 147.431 476.928 145.652 480.767 144.595Z"/>
<path fill="#141414" transform="scale(0.292969 0.292969)" d="M481.768 147.613C485.834 147.368 489.626 147.637 493.597 148.537C502.71 150.603 513.33 155.981 518.417 164.079Q518.544 165.415 518.588 166.756C518.849 175.495 513.477 182.81 507.805 188.9C506.867 189.602 505.909 190.334 504.786 190.713C501.662 191.767 497.52 190.16 494.749 188.758C485.933 184.298 477.008 176.328 474.006 166.641C472.659 162.294 472.128 156.655 474.479 152.548C476.246 149.462 478.477 148.569 481.768 147.613Z"/>
</svg>