<svg width="13" height="13" viewBox="0 0 13 13" fill="none" xmlns="http://www.w3.org/2000/svg">
<path d="M6.8241 0.500488C5.63741 0.500488 4.47737 0.852382 3.49068 1.51167C2.50398 2.17096 1.73495 3.10803 1.28082 4.20439C0.826696 5.30074 0.707876 6.50714 0.939388 7.67103C1.1709 8.83491 1.74234 9.90401 2.58146 10.7431C3.42057 11.5822 4.48967 12.1537 5.65356 12.3852C6.81744 12.6167 8.02384 12.4979 9.1202 12.0438C10.2166 11.5896 11.1536 10.8206 11.8129 9.83391C12.4722 8.84721 12.8241 7.68717 12.8241 6.50049C12.821 4.91013 12.1879 3.38577 11.0634 2.26122C9.93881 1.13666 8.41446 0.503538 6.8241 0.500488V0.500488ZM10.0549 6.96203H6.8241C6.70169 6.96203 6.5843 6.9134 6.49774 6.82684C6.41119 6.74029 6.36256 6.62289 6.36256 6.50049V3.26972C6.36256 3.14731 6.41119 3.02992 6.49774 2.94336C6.5843 2.85681 6.70169 2.80818 6.8241 2.80818C6.94651 2.80818 7.0639 2.85681 7.15046 2.94336C7.23701 3.02992 7.28564 3.14731 7.28564 3.26972V6.03895H10.0549C10.1773 6.03895 10.2947 6.08758 10.3812 6.17413C10.4678 6.26069 10.5164 6.37808 10.5164 6.50049C10.5164 6.62289 10.4678 6.74029 10.3812 6.82684C10.2947 6.9134 10.1773 6.96203 10.0549 6.96203Z" fill="#AEB9E1"/>
</svg>
