<svg width="35" height="35" viewBox="0 0 35 35" fill="none" xmlns="http://www.w3.org/2000/svg">
<path fill-rule="evenodd" clip-rule="evenodd" d="M12.6936 0C12.084 0 11.5898 0.494183 11.5898 1.10379V11.6669C5.18185 11.7083 0 16.9156 0 23.3333C0 29.7766 5.22334 35 11.6667 35H22.0757C22.6853 35 23.1795 34.5058 23.1795 33.8962V23.3331C29.5874 23.2917 34.7693 18.0843 34.7693 11.6667C34.7693 5.22335 29.5459 0 23.1026 0H12.6936ZM23.1795 23.3331V12.7704C23.1795 12.1608 22.6853 11.6667 22.0757 11.6667H11.6667C11.641 11.6667 11.6154 11.6667 11.5898 11.6669V22.2295C11.5898 22.8392 12.084 23.3333 12.6936 23.3333H23.1026C23.1283 23.3333 23.1539 23.3333 23.1795 23.3331Z" fill="#8951FF"/>
<path d="M12.5692 0C12.0283 0 11.5898 0.441409 11.5898 0.985915L11.5898 11.6667H22.2001C22.741 11.6667 23.1795 12.1081 23.1795 12.6526L23.1795 23.3333C29.5804 23.3333 34.7693 18.11 34.7693 11.6667C34.7693 5.22334 29.5804 0 23.1795 0H12.5692Z" fill="#00C2FF"/>
</svg>
